<?xml version="1.0" encoding="UTF-8" standalone="no"?>
<!DOCTYPE svg PUBLIC "-//W3C//DTD SVG 1.1//EN"
 "http://www.w3.org/Graphics/SVG/1.1/DTD/svg11.dtd">
<!-- Generated by graphviz version 2.26.3 (20100126.1600)
 -->
<!-- Title: Schulze_method_example1 Pages: 1 -->
<svg width="290pt" height="279pt"
 viewBox="0.00 0.00 290.00 279.00" xmlns="http://www.w3.org/2000/svg" xmlns:xlink="http://www.w3.org/1999/xlink">
<g id="graph1" class="graph" transform="scale(1 1) rotate(0) translate(4 275)">
<title>Schulze_method_example1</title>
<!-- A -->
<g id="node1" class="node"><title>A</title>
<ellipse fill="snow" stroke="black" cx="69.2" cy="-246.56" rx="22.838" ry="23.3345"/>
<text text-anchor="middle" x="69.2" y="-241.06" font-family="Helvetica-Normal" font-size="20.00">A</text>
</g>
<!-- E_AC -->
<g id="node7" class="node"><title>E_AC</title>
<polygon fill="snow" stroke="black" points="185.34,-197.836 149.34,-197.836 149.34,-168.836 185.34,-168.836 185.34,-197.836"/>
<text text-anchor="middle" x="167.34" y="-178.936" font-family="Helvetica-Normal" font-size="16.00">26</text>
</g>
<!-- A&#45;&gt;E_AC -->
<g id="edge6" class="edge"><title>A&#45;&gt;E_AC</title>
<path fill="none" stroke="black" stroke-width="3" d="M89.06,-233.766C106.647,-222.436 132.104,-206.035 149.164,-195.045"/>
</g>
<!-- E_AD -->
<g id="node9" class="node"><title>E_AD</title>
<polygon fill="snow" stroke="black" points="114.583,-146.719 78.5831,-146.719 78.5831,-117.719 114.583,-117.719 114.583,-146.719"/>
<text text-anchor="middle" x="96.5831" y="-127.819" font-family="Helvetica-Normal" font-size="16.00">30</text>
</g>
<!-- A&#45;&gt;E_AD -->
<g id="edge14" class="edge"><title>A&#45;&gt;E_AD</title>
<path fill="none" stroke="black" stroke-width="3" d="M74.6756,-223.696C80.1382,-200.886 88.3698,-166.514 93.0319,-147.047"/>
</g>
<!-- B -->
<g id="node2" class="node"><title>B</title>
<ellipse fill="snow" stroke="black" cx="213.2" cy="-246.56" rx="22.838" ry="23.3345"/>
<text text-anchor="middle" x="213.2" y="-241.06" font-family="Helvetica-Normal" font-size="20.00">B</text>
</g>
<!-- E_BA -->
<g id="node6" class="node"><title>E_BA</title>
<polygon fill="snow" stroke="black" points="159.627,-261.06 123.627,-261.06 123.627,-232.06 159.627,-232.06 159.627,-261.06"/>
<text text-anchor="middle" x="141.627" y="-242.16" font-family="Helvetica-Normal" font-size="16.00">25</text>
</g>
<!-- B&#45;&gt;E_BA -->
<g id="edge2" class="edge"><title>B&#45;&gt;E_BA</title>
<path fill="none" stroke="black" stroke-width="3" d="M190.16,-246.56C180.352,-246.56 169.075,-246.56 159.861,-246.56"/>
</g>
<!-- E_BD -->
<g id="node10" class="node"><title>E_BD</title>
<polygon fill="snow" stroke="black" points="203.651,-146.963 167.651,-146.963 167.651,-117.963 203.651,-117.963 203.651,-146.963"/>
<text text-anchor="middle" x="185.651" y="-128.063" font-family="Helvetica-Normal" font-size="16.00">33</text>
</g>
<!-- B&#45;&gt;E_BD -->
<g id="edge18" class="edge"><title>B&#45;&gt;E_BD</title>
<path fill="none" stroke="black" stroke-width="3" d="M207.625,-223.471C202.122,-200.68 193.874,-166.521 189.206,-147.186"/>
</g>
<!-- C -->
<g id="node3" class="node"><title>C</title>
<ellipse fill="snow" stroke="black" cx="257.84" cy="-109.04" rx="22.838" ry="23.3345"/>
<text text-anchor="middle" x="257.84" y="-103.54" font-family="Helvetica-Normal" font-size="20.00">C</text>
</g>
<!-- E_CB -->
<g id="node8" class="node"><title>E_CB</title>
<polygon fill="snow" stroke="black" points="254.321,-189.831 218.321,-189.831 218.321,-160.831 254.321,-160.831 254.321,-189.831"/>
<text text-anchor="middle" x="236.321" y="-170.931" font-family="Helvetica-Normal" font-size="16.00">29</text>
</g>
<!-- C&#45;&gt;E_CB -->
<g id="edge10" class="edge"><title>C&#45;&gt;E_CB</title>
<path fill="none" stroke="black" stroke-width="3" d="M250.555,-131.483C247.433,-141.099 243.875,-152.061 241.097,-160.619"/>
</g>
<!-- E_CE -->
<g id="node14" class="node"><title>E_CE</title>
<polygon fill="snow" stroke="black" points="159.399,-110.693 123.399,-110.693 123.399,-81.6931 159.399,-81.6931 159.399,-110.693"/>
<text text-anchor="middle" x="141.399" y="-91.7931" font-family="Helvetica-Normal" font-size="16.00">24</text>
</g>
<!-- C&#45;&gt;E_CE -->
<g id="edge34" class="edge"><title>C&#45;&gt;E_CE</title>
<path fill="none" stroke="black" stroke-width="3" d="M234.835,-106.502C212.698,-104.06 179.681,-100.417 159.399,-98.1791"/>
</g>
<!-- D -->
<g id="node4" class="node"><title>D</title>
<ellipse fill="snow" stroke="black" cx="141.2" cy="-24.8" rx="22.838" ry="23.3345"/>
<text text-anchor="middle" x="141.2" y="-19.3" font-family="Helvetica-Normal" font-size="20.00">D</text>
</g>
<!-- E_DC -->
<g id="node11" class="node"><title>E_DC</title>
<polygon fill="snow" stroke="black" points="218.131,-81.8614 182.131,-81.8614 182.131,-52.8614 218.131,-52.8614 218.131,-81.8614"/>
<text text-anchor="middle" x="200.131" y="-62.9614" font-family="Helvetica-Normal" font-size="16.00">28</text>
</g>
<!-- D&#45;&gt;E_DC -->
<g id="edge22" class="edge"><title>D&#45;&gt;E_DC</title>
<path fill="none" stroke="black" stroke-width="3" d="M160.171,-38.501C167.169,-43.5556 175.077,-49.2664 181.999,-54.2661"/>
</g>
<!-- E -->
<g id="node5" class="node"><title>E</title>
<ellipse fill="snow" stroke="black" cx="24.56" cy="-109.04" rx="22.838" ry="23.3345"/>
<text text-anchor="middle" x="24.56" y="-103.54" font-family="Helvetica-Normal" font-size="20.00">E</text>
</g>
<!-- E_EA -->
<g id="node12" class="node"><title>E_EA</title>
<polygon fill="snow" stroke="black" points="64.1844,-190.157 28.1844,-190.157 28.1844,-161.157 64.1844,-161.157 64.1844,-190.157"/>
<text text-anchor="middle" x="46.1844" y="-171.257" font-family="Helvetica-Normal" font-size="16.00">23</text>
</g>
<!-- E&#45;&gt;E_EA -->
<g id="edge26" class="edge"><title>E&#45;&gt;E_EA</title>
<path fill="none" stroke="black" stroke-width="3" d="M31.881,-131.593C35.0177,-141.257 38.5936,-152.272 41.3852,-160.873"/>
</g>
<!-- E_EB -->
<g id="node13" class="node"><title>E_EB</title>
<polygon fill="snow" stroke="black" points="133.197,-197.671 97.1972,-197.671 97.1972,-168.671 133.197,-168.671 133.197,-197.671"/>
<text text-anchor="middle" x="115.197" y="-178.771" font-family="Helvetica-Normal" font-size="16.00">27</text>
</g>
<!-- E&#45;&gt;E_EB -->
<g id="edge30" class="edge"><title>E&#45;&gt;E_EB</title>
<path fill="none" stroke="black" stroke-width="3" d="M42.9018,-124.041C58.7304,-136.987 81.4623,-155.579 97.192,-168.444"/>
</g>
<!-- E_ED -->
<g id="node15" class="node"><title>E_ED</title>
<polygon fill="snow" stroke="black" points="102.579,-80.1931 66.5788,-80.1931 66.5788,-51.1931 102.579,-51.1931 102.579,-80.1931"/>
<text text-anchor="middle" x="84.5788" y="-61.2931" font-family="Helvetica-Normal" font-size="16.00">31</text>
</g>
<!-- E&#45;&gt;E_ED -->
<g id="edge38" class="edge"><title>E&#45;&gt;E_ED</title>
<path fill="none" stroke="black" stroke-width="3" d="M43.5503,-95.3248C50.831,-90.0665 59.1166,-84.0824 66.3267,-78.8752"/>
</g>
<!-- E_BA&#45;&gt;A -->
<g id="edge4" class="edge"><title>E_BA&#45;&gt;A</title>
<path fill="none" stroke="black" stroke-width="3" d="M123.35,-246.56C117.924,-246.56 111.778,-246.56 105.624,-246.56"/>
<polygon fill="black" stroke="black" points="105.415,-242.01 92.4151,-246.56 105.415,-251.11 105.415,-242.01"/>
</g>
<!-- E_AC&#45;&gt;C -->
<g id="edge8" class="edge"><title>E_AC&#45;&gt;C</title>
<path fill="none" stroke="black" stroke-width="3" d="M185.22,-168.657C197.781,-158.345 214.849,-144.333 229.282,-132.484"/>
<polygon fill="black" stroke="black" points="232.527,-135.708 239.687,-123.942 226.753,-128.674 232.527,-135.708"/>
</g>
<!-- E_CB&#45;&gt;B -->
<g id="edge12" class="edge"><title>E_CB&#45;&gt;B</title>
<path fill="none" stroke="black" stroke-width="3" d="M231.531,-190.09C229.48,-196.407 226.99,-204.076 224.516,-211.699"/>
<polygon fill="black" stroke="black" points="220.132,-210.468 220.446,-224.238 228.787,-213.278 220.132,-210.468"/>
</g>
<!-- E_AD&#45;&gt;D -->
<g id="edge16" class="edge"><title>E_AD&#45;&gt;D</title>
<path fill="none" stroke="black" stroke-width="3" d="M102.787,-117.282C109.033,-102.244 118.886,-78.5232 127.049,-58.8704"/>
<polygon fill="black" stroke="black" points="131.329,-60.4262 132.114,-46.6753 122.925,-56.9356 131.329,-60.4262"/>
</g>
<!-- E_BD&#45;&gt;D -->
<g id="edge20" class="edge"><title>E_BD&#45;&gt;D</title>
<path fill="none" stroke="black" stroke-width="3" d="M179.656,-117.943C173.406,-102.805 163.39,-78.5458 155.147,-58.5805"/>
<polygon fill="black" stroke="black" points="159.335,-56.8021 150.169,-46.5224 150.924,-60.275 159.335,-56.8021"/>
</g>
<!-- E_DC&#45;&gt;C -->
<g id="edge24" class="edge"><title>E_DC&#45;&gt;C</title>
<path fill="none" stroke="black" stroke-width="3" d="M218.391,-80.5488C221.424,-82.7399 224.64,-85.062 227.874,-87.3976"/>
<polygon fill="black" stroke="black" points="225.501,-91.2967 238.704,-95.2195 230.829,-83.9195 225.501,-91.2967"/>
</g>
<!-- E_EA&#45;&gt;A -->
<g id="edge28" class="edge"><title>E_EA&#45;&gt;A</title>
<path fill="none" stroke="black" stroke-width="3" d="M50.9532,-190.348C52.9776,-196.585 55.4316,-204.145 57.8746,-211.671"/>
<polygon fill="black" stroke="black" points="53.5564,-213.105 61.898,-224.065 62.2119,-210.295 53.5564,-213.105"/>
</g>
<!-- E_EB&#45;&gt;B -->
<g id="edge32" class="edge"><title>E_EB&#45;&gt;B</title>
<path fill="none" stroke="black" stroke-width="3" d="M133.631,-195.094C147.373,-203.982 166.456,-216.325 182.489,-226.696"/>
<polygon fill="black" stroke="black" points="180.117,-230.58 193.504,-233.82 185.059,-222.939 180.117,-230.58"/>
</g>
<!-- E_CE&#45;&gt;E -->
<g id="edge36" class="edge"><title>E_CE&#45;&gt;E</title>
<path fill="none" stroke="black" stroke-width="3" d="M123.399,-98.1723C106.78,-99.9996 81.6022,-102.768 60.8179,-105.053"/>
<polygon fill="black" stroke="black" points="60.0346,-100.562 47.6098,-106.506 61.0293,-109.607 60.0346,-100.562"/>
</g>
<!-- E_ED&#45;&gt;D -->
<g id="edge40" class="edge"><title>E_ED&#45;&gt;D</title>
<path fill="none" stroke="black" stroke-width="3" d="M102.806,-52.5292C105.618,-50.4979 108.584,-48.3563 111.569,-46.2005"/>
<polygon fill="black" stroke="black" points="114.353,-49.8021 122.228,-38.5021 109.025,-42.4249 114.353,-49.8021"/>
</g>
</g>
</svg>
